# Blender v2.78 (sub 0) OBJ File: 'bishop.blend'
# www.blender.org
o Bishop_Cylinder.001
v -0.720239 4.855492 0.022160
v -0.981927 6.011293 0.022160
v -0.834249 6.003139 -0.329910
v -0.837984 6.024978 -0.332830
v -0.691849 6.024978 -0.685630
v -0.504617 4.855492 -0.498399
v -0.622051 4.639527 -0.615835
v -0.886318 4.639527 0.022158
v -0.504617 4.855492 0.542717
v -0.691849 6.024978 0.729949
v -0.961084 6.024978 0.079960
v -0.540231 6.753419 -0.412415
v -0.504617 6.753419 -0.498399
v 0.015941 6.024978 -0.978807
v 0.015941 4.855492 -0.714020
v 0.015941 4.639527 -0.880100
v -0.509187 4.524629 -0.502971
v -0.726703 4.524629 0.022158
v -0.622053 4.639527 0.660152
v 0.015941 4.855492 0.758340
v 0.015941 6.024978 1.023125
v -0.504617 6.753419 0.542717
v -0.720239 6.753419 0.022160
v -0.805669 6.518396 0.022160
v -0.918339 6.048121 0.162845
v -0.426660 6.854705 -0.420441
v 0.015941 6.753419 -0.714020
v 0.723731 6.024978 -0.685630
v 0.536499 4.855492 -0.498399
v 0.653934 4.639527 -0.615835
v 0.015941 4.524629 -0.720485
v -0.807428 4.314642 -0.801212
v -1.148480 4.314642 0.022158
v -0.509188 4.524629 0.547288
v 0.015941 4.639527 0.924419
v 0.536499 4.855492 0.542717
v 0.723731 6.024978 0.729950
v 0.015941 6.753419 0.758340
v 0.015941 7.429760 0.022160
v -0.693342 6.753419 -0.042776
v 0.015941 7.020949 -0.422821
v 0.536499 6.753419 -0.498399
v 1.016907 6.024978 0.022160
v 0.752120 4.855492 0.022160
v 0.918200 4.639527 0.022160
v 0.541069 4.524629 -0.502969
v 0.015941 4.314642 -1.142260
v -0.471536 4.131012 -0.465319
v -0.673456 4.131012 0.022158
v -0.807429 4.314642 0.845529
v 0.015941 4.524629 0.764803
v 0.653934 4.639527 0.660153
v 0.536499 6.753419 0.542717
v -0.146451 7.218770 -0.140233
v 0.427630 6.894869 -0.389530
v 0.591870 6.753419 -0.364720
v 0.727741 6.432419 -0.318395
v 0.840496 6.510294 0.022160
v 0.758585 4.524629 0.022160
v 0.839311 4.314642 -0.801209
v 0.015941 4.131012 -0.667238
v -0.690455 1.841810 -0.684238
v -0.983054 1.841810 0.022158
v -0.471537 4.131012 0.509637
v 0.015941 4.314642 1.186580
v 0.541069 4.524629 0.547288
v 0.775804 6.513721 0.175332
v 0.722764 6.753419 0.093032
v 0.015941 7.277496 -0.143576
v 1.180362 4.314642 0.022160
v 0.503419 4.131012 -0.465319
v 0.015941 1.841810 -0.976836
v -1.216329 1.709916 0.022158
v -0.855404 1.709916 -0.849187
v -0.690456 1.841810 0.728555
v 0.015941 4.131012 0.711557
v 0.839311 4.314642 0.845529
v 0.564071 6.926184 0.022160
v 0.157766 7.245492 -0.119665
v 0.705339 4.131012 0.022160
v 0.722338 1.841810 -0.684238
v 0.015941 1.709916 -1.210109
v -1.356508 1.490379 0.022158
v -0.954526 1.490379 -0.948311
v -0.855406 1.709916 0.893505
v 0.015941 1.841810 1.021156
v 0.503419 4.131012 0.509637
v 1.014937 1.841810 0.022160
v 0.887287 1.709916 -0.849187
v 0.015941 1.490379 -1.350291
v -1.782832 1.117531 0.022158
v -1.255982 1.117531 -1.249766
v -0.954528 1.490379 0.992627
v 0.015941 1.709916 1.254429
v 0.722338 1.841810 0.728557
v 1.248211 1.709916 0.022160
v 0.986409 1.490379 -0.948308
v 0.015941 1.117531 -1.776613
v -1.511054 0.680384 0.022158
v -1.063806 0.680384 -1.057591
v -1.255985 1.117531 1.294083
v 0.015941 1.490379 1.394609
v 0.887287 1.709916 0.893505
v 1.388390 1.490379 0.022160
v 1.287866 1.117531 -1.249766
v 0.015941 0.680384 -1.504836
v -1.752607 0.578099 0.022158
v -1.234610 0.578099 -1.228394
v -1.063808 0.680384 1.101907
v 0.015940 1.117531 1.820933
v 0.986409 1.490379 0.992627
v 1.814713 1.117531 0.022160
v 1.095689 0.680384 -1.057589
v 0.015941 0.578099 -1.746389
v -1.984009 0.074338 0.022157
v -1.398236 0.074338 -1.392020
v -1.234613 0.578099 1.272712
v 0.015940 0.680384 1.549155
v 1.287866 1.117531 1.294084
v 1.542936 0.680384 0.022160
v 1.266494 0.578099 -1.228394
v 0.015941 0.074338 -1.977790
v 0.015940 0.074338 2.022110
v -1.398238 0.074338 1.436337
v 1.430119 0.074338 -1.392017
v 2.015890 0.074338 0.022160
v 1.430119 0.074338 1.436338
v 0.015940 0.578099 1.790708
v 1.095689 0.680384 1.101908
v 1.784489 0.578099 0.022160
v 1.266494 0.578099 1.272712
v -0.191905 7.549761 0.022160
v -0.191905 7.789761 0.022160
v -0.131029 7.789761 -0.124809
v -0.131029 7.549761 -0.124809
v -0.131029 7.549761 0.169129
v -0.131029 7.789761 0.169129
v 0.015941 7.909761 0.022160
v 0.015941 7.789761 -0.185687
v 0.015941 7.549761 -0.185687
v 0.015941 7.549761 0.230006
v 0.015941 7.789761 0.230006
v 0.162911 7.789761 -0.124809
v 0.162911 7.549761 -0.124809
v 0.162911 7.549761 0.169129
v 0.162911 7.789761 0.169129
v 0.223787 7.789761 0.022160
v 0.223787 7.549761 0.022160
vn -0.9043 -0.2047 -0.3746
vn -0.7531 0.5792 -0.3120
vn -0.9043 -0.2047 0.3746
vn -0.8758 0.3184 -0.3628
vn -0.3746 -0.2047 -0.9043
vn -0.3120 0.5792 -0.7531
vn -0.5678 -0.7888 -0.2352
vn -0.7531 0.5792 0.3120
vn -0.3746 -0.2047 0.9043
vn -0.8758 0.3184 0.3628
vn -0.6515 0.7091 -0.2698
vn -0.3628 0.3184 -0.8758
vn 0.3746 -0.2047 -0.9043
vn 0.3120 0.5792 -0.7531
vn -0.2352 -0.7888 -0.5678
vn -0.4383 0.8803 -0.1815
vn -0.5678 -0.7888 0.2352
vn -0.3120 0.5792 0.7531
vn 0.3746 -0.2047 0.9043
vn -0.3628 0.3184 0.8758
vn -0.6514 0.7091 0.2698
vn -0.2698 0.7091 -0.6514
vn 0.3628 0.3184 -0.8758
vn 0.9043 -0.2047 -0.3746
vn 0.7531 0.5792 -0.3120
vn 0.2352 -0.7888 -0.5678
vn -0.1815 0.8803 -0.4383
vn -0.3566 -0.9225 -0.1477
vn -0.4383 0.8803 0.1815
vn -0.2352 -0.7888 0.5678
vn 0.3120 0.5792 0.7531
vn 0.9043 -0.2047 0.3746
vn 0.3628 0.3184 0.8758
vn -0.2698 0.7091 0.6514
vn 0.2698 0.7091 -0.6515
vn 0.8758 0.3184 -0.3628
vn 0.7531 0.5792 0.3120
vn 0.5678 -0.7888 -0.2352
vn 0.1815 0.8803 -0.4383
vn -0.1477 -0.9225 -0.3566
vn -0.9168 0.1240 -0.3797
vn -0.3566 -0.9225 0.1477
vn -0.1815 0.8803 0.4383
vn 0.2352 -0.7888 0.5678
vn 0.8758 0.3184 0.3628
vn 0.2698 0.7091 0.6514
vn -0.2698 0.7091 -0.6515
vn 0.6515 0.7091 -0.2698
vn 0.5678 -0.7888 0.2352
vn 0.4383 0.8803 -0.1815
vn 0.1477 -0.9225 -0.3566
vn -0.3797 0.1240 -0.9168
vn -0.4823 0.8529 -0.1998
vn -0.9168 0.1240 0.3797
vn -0.1477 -0.9225 0.3566
vn 0.1815 0.8803 0.4383
vn 0.6514 0.7091 0.2698
vn 0.2698 0.7091 -0.6514
vn 0.4383 0.8803 0.1815
vn 0.3566 -0.9225 -0.1477
vn 0.3797 0.1240 -0.9168
vn -0.1998 0.8529 -0.4823
vn -0.7957 0.5081 -0.3296
vn -0.4823 0.8529 0.1998
vn -0.3797 0.1240 0.9168
vn 0.1477 -0.9225 0.3566
vn 0.6514 0.7091 -0.2698
vn 0.3566 -0.9225 0.1477
vn 0.9168 0.1240 -0.3797
vn 0.1998 0.8529 -0.4823
vn -0.3296 0.5081 -0.7957
vn -0.6351 0.7262 -0.2631
vn -0.7957 0.5081 0.3296
vn -0.1998 0.8529 0.4823
vn 0.3797 0.1240 0.9168
vn 0.9168 0.1240 0.3797
vn 0.4823 0.8529 -0.1998
vn 0.3296 0.5081 -0.7957
vn -0.2631 0.7262 -0.6351
vn -0.8011 -0.4981 -0.3318
vn -0.6351 0.7262 0.2631
vn -0.3296 0.5081 0.7957
vn 0.1998 0.8529 0.4823
vn 0.4823 0.8529 0.1998
vn 0.7957 0.5081 -0.3296
vn 0.2631 0.7262 -0.6351
vn -0.3318 -0.4981 -0.8011
vn -0.3849 0.9091 -0.1594
vn -0.8011 -0.4981 0.3318
vn -0.2631 0.7262 0.6351
vn 0.3296 0.5081 0.7957
vn 0.7957 0.5081 0.3296
vn 0.6351 0.7262 -0.2631
vn 0.3318 -0.4981 -0.8011
vn -0.1594 0.9091 -0.3849
vn -0.8505 0.3907 -0.3523
vn -0.3849 0.9091 0.1594
vn -0.3318 -0.4981 0.8011
vn 0.2631 0.7262 0.6351
vn 0.6351 0.7262 0.2631
vn 0.8011 -0.4981 -0.3318
vn 0.1594 0.9091 -0.3849
vn -0.3523 0.3907 -0.8505
vn 0.0000 -1.0000 0.0000
vn -0.8505 0.3907 0.3523
vn -0.1594 0.9091 0.3849
vn 0.3318 -0.4981 0.8011
vn 0.8011 -0.4981 0.3318
vn 0.3849 0.9091 -0.1594
vn 0.3523 0.3907 -0.8505
vn 0.3523 0.3907 0.8505
vn -0.3523 0.3907 0.8505
vn 0.8505 0.3907 -0.3523
vn 0.8505 0.3907 0.3523
vn 0.1594 0.9091 0.3849
vn 0.3849 0.9091 0.1594
vn 0.0909 -0.3053 -0.9479
vn -0.2618 0.9561 -0.1320
vn -0.0418 0.1254 0.9912
vn -0.9239 0.0000 -0.3827
vn -0.4896 -0.8480 -0.2028
vn -0.9239 0.0000 0.3827
vn -0.4896 0.8480 -0.2028
vn -0.3827 0.0000 -0.9239
vn -0.2028 -0.8480 -0.4896
vn -0.4896 -0.8480 0.2028
vn -0.3827 0.0000 0.9239
vn -0.4896 0.8480 0.2028
vn -0.2028 0.8480 -0.4896
vn 0.3827 0.0000 -0.9239
vn 0.2028 -0.8480 -0.4896
vn -0.2028 -0.8480 0.4896
vn 0.3827 0.0000 0.9239
vn -0.2028 0.8480 0.4896
vn 0.2028 0.8480 -0.4896
vn 0.9239 0.0000 -0.3827
vn 0.4896 -0.8480 -0.2028
vn 0.2028 -0.8480 0.4896
vn 0.9239 0.0000 0.3827
vn 0.2028 0.8480 0.4896
vn 0.4896 0.8480 -0.2028
vn 0.4896 -0.8480 0.2028
vn 0.4896 0.8480 0.2028
vn -0.6514 0.7091 -0.2698
vn -0.2618 0.9561 -0.1319
s off
f 3//1 5//1 6//1
f 6//2 8//2 1//2
f 9//3 10//3 11//3
f 12//4 5//4 4//4
f 5//5 15//5 6//5
f 15//6 7//6 6//6
f 18//7 7//7 17//7
f 1//8 19//8 9//8
f 20//9 10//9 9//9
f 10//10 24//10 25//10
f 26//11 13//11 12//11
f 5//12 27//12 14//12
f 14//13 29//13 15//13
f 30//14 15//14 29//14
f 17//15 16//15 31//15
f 32//16 18//16 17//16
f 18//17 19//17 8//17
f 19//18 20//18 9//18
f 37//19 20//19 36//19
f 38//20 10//20 21//20
f 22//21 39//21 23//21
f 24//4 23//4 40//4
f 26//22 27//22 13//22
f 14//23 42//23 28//23
f 28//24 44//24 29//24
f 45//25 29//25 44//25
f 31//26 30//26 46//26
f 47//27 17//27 31//27
f 49//28 32//28 48//28
f 33//29 34//29 18//29
f 51//30 19//30 34//30
f 20//31 52//31 36//31
f 43//32 36//32 44//32
f 37//33 38//33 21//33
f 38//34 39//34 22//34
f 23//11 54//11 40//11
f 27//35 55//35 42//35
f 28//36 57//36 43//36
f 36//37 45//37 44//37
f 46//38 45//38 59//38
f 60//39 31//39 46//39
f 61//40 32//40 47//40
f 63//41 48//41 62//41
f 64//42 33//42 49//42
f 65//43 34//43 50//43
f 66//44 35//44 51//44
f 67//45 53//45 37//45
f 53//46 39//46 38//46
f 54//47 39//47 69//47
f 42//48 55//48 56//48
f 66//49 45//49 52//49
f 60//50 59//50 70//50
f 71//51 47//51 60//51
f 62//52 61//52 72//52
f 63//53 74//53 73//53
f 63//54 64//54 49//54
f 76//55 50//55 64//55
f 65//56 66//56 51//56
f 78//57 53//57 68//57
f 69//58 39//58 79//58
f 77//59 59//59 66//59
f 80//60 60//60 70//60
f 72//61 71//61 81//61
f 62//62 82//62 74//62
f 83//63 74//63 84//63
f 75//64 73//64 85//64
f 75//65 76//65 64//65
f 76//66 77//66 65//66
f 79//67 39//67 78//67
f 87//68 70//68 77//68
f 88//69 71//69 80//69
f 82//70 81//70 89//70
f 84//71 82//71 90//71
f 83//72 92//72 91//72
f 85//73 83//73 93//73
f 86//74 85//74 94//74
f 95//75 76//75 86//75
f 88//76 87//76 95//76
f 89//77 88//77 96//77
f 90//78 89//78 97//78
f 92//79 90//79 98//79
f 99//80 92//80 100//80
f 93//81 91//81 101//81
f 94//82 93//82 102//82
f 95//83 94//83 103//83
f 88//84 103//84 96//84
f 97//85 96//85 104//85
f 90//86 105//86 98//86
f 100//87 98//87 106//87
f 99//88 108//88 107//88
f 101//89 99//89 109//89
f 110//90 93//90 101//90
f 103//91 102//91 111//91
f 104//92 103//92 111//92
f 97//93 112//93 105//93
f 106//94 105//94 113//94
f 100//95 114//95 108//95
f 115//96 108//96 116//96
f 109//97 107//97 117//97
f 118//98 101//98 109//98
f 119//99 102//99 110//99
f 112//100 111//100 119//100
f 113//101 112//101 120//101
f 106//102 121//102 114//102
f 108//103 122//103 116//103
f 116//104 125//104 124//104
f 124//105 107//105 115//105
f 118//106 117//106 128//106
f 129//107 110//107 118//107
f 112//108 129//108 120//108
f 113//109 130//109 121//109
f 122//110 121//110 125//110
f 127//111 128//111 123//111
f 128//112 124//112 123//112
f 125//113 130//113 126//113
f 126//114 131//114 127//114
f 129//115 128//115 131//115
f 120//116 131//116 130//116
f 40//117 78//117 67//117
f 57//118 3//118 25//118
f 26//119 57//119 55//119
f 133//120 135//120 132//120
f 39//121 132//121 135//121
f 137//122 132//122 136//122
f 133//123 138//123 134//123
f 134//124 140//124 135//124
f 39//125 135//125 140//125
f 39//126 136//126 132//126
f 142//127 136//127 141//127
f 137//128 138//128 133//128
f 134//129 138//129 139//129
f 139//130 144//130 140//130
f 39//131 140//131 144//131
f 39//132 141//132 136//132
f 146//133 141//133 145//133
f 142//134 138//134 137//134
f 139//135 138//135 143//135
f 143//136 148//136 144//136
f 39//137 144//137 148//137
f 39//138 145//138 141//138
f 147//139 145//139 148//139
f 146//140 138//140 142//140
f 143//141 138//141 147//141
f 39//142 148//142 145//142
f 147//143 138//143 146//143
f 6//1 1//1 3//1
f 3//1 4//1 5//1
f 1//1 2//1 3//1
f 6//2 7//2 8//2
f 11//3 2//3 1//3
f 1//3 9//3 11//3
f 12//4 13//4 5//4
f 5//5 14//5 15//5
f 15//6 16//6 7//6
f 18//7 8//7 7//7
f 1//8 8//8 19//8
f 20//9 21//9 10//9
f 10//10 22//10 24//10
f 23//10 24//10 22//10
f 25//10 11//10 10//10
f 5//12 13//12 27//12
f 14//13 28//13 29//13
f 30//14 16//14 15//14
f 17//15 7//15 16//15
f 32//16 33//16 18//16
f 18//17 34//17 19//17
f 19//18 35//18 20//18
f 37//19 21//19 20//19
f 38//20 22//20 10//20
f 26//47 41//47 27//47
f 14//23 27//23 42//23
f 28//24 43//24 44//24
f 45//25 30//25 29//25
f 31//26 16//26 30//26
f 47//27 32//27 17//27
f 49//28 33//28 32//28
f 33//29 50//29 34//29
f 51//30 35//30 19//30
f 20//31 35//31 52//31
f 43//32 37//32 36//32
f 37//33 53//33 38//33
f 23//144 39//144 54//144
f 27//58 41//58 55//58
f 28//36 42//36 57//36
f 57//36 58//36 43//36
f 42//36 56//36 57//36
f 36//37 52//37 45//37
f 46//38 30//38 45//38
f 60//39 47//39 31//39
f 61//40 48//40 32//40
f 63//41 49//41 48//41
f 64//42 50//42 33//42
f 65//43 51//43 34//43
f 66//44 52//44 35//44
f 37//45 43//45 67//45
f 67//45 68//45 53//45
f 43//45 58//45 67//45
f 66//49 59//49 45//49
f 60//50 46//50 59//50
f 71//51 61//51 47//51
f 62//52 48//52 61//52
f 63//53 62//53 74//53
f 63//54 75//54 64//54
f 76//55 65//55 50//55
f 65//56 77//56 66//56
f 78//57 39//57 53//57
f 77//59 70//59 59//59
f 80//60 71//60 60//60
f 72//61 61//61 71//61
f 62//62 72//62 82//62
f 83//63 73//63 74//63
f 75//64 63//64 73//64
f 75//65 86//65 76//65
f 76//66 87//66 77//66
f 87//68 80//68 70//68
f 88//69 81//69 71//69
f 82//70 72//70 81//70
f 84//71 74//71 82//71
f 83//72 84//72 92//72
f 85//73 73//73 83//73
f 86//74 75//74 85//74
f 95//75 87//75 76//75
f 88//76 80//76 87//76
f 89//77 81//77 88//77
f 90//78 82//78 89//78
f 92//79 84//79 90//79
f 99//80 91//80 92//80
f 93//81 83//81 91//81
f 94//82 85//82 93//82
f 95//83 86//83 94//83
f 88//84 95//84 103//84
f 97//85 89//85 96//85
f 90//86 97//86 105//86
f 100//87 92//87 98//87
f 99//88 100//88 108//88
f 101//89 91//89 99//89
f 110//90 102//90 93//90
f 103//91 94//91 102//91
f 104//92 96//92 103//92
f 97//93 104//93 112//93
f 106//94 98//94 105//94
f 100//95 106//95 114//95
f 115//96 107//96 108//96
f 109//97 99//97 107//97
f 118//98 110//98 101//98
f 119//99 111//99 102//99
f 112//100 104//100 111//100
f 113//101 105//101 112//101
f 106//102 113//102 121//102
f 108//103 114//103 122//103
f 127//104 123//104 124//104
f 124//104 115//104 116//104
f 116//104 122//104 125//104
f 125//104 126//104 127//104
f 127//104 124//104 125//104
f 124//105 117//105 107//105
f 118//106 109//106 117//106
f 129//107 119//107 110//107
f 112//108 119//108 129//108
f 113//109 120//109 130//109
f 122//110 114//110 121//110
f 127//111 131//111 128//111
f 128//112 117//112 124//112
f 125//113 121//113 130//113
f 126//114 130//114 131//114
f 129//115 118//115 128//115
f 120//116 129//116 131//116
f 67//117 25//117 24//117
f 24//117 40//117 67//117
f 54//117 69//117 79//117
f 79//117 78//117 54//117
f 68//117 67//117 78//117
f 40//117 54//117 78//117
f 25//145 67//145 57//145
f 58//118 57//118 67//118
f 3//118 2//118 11//118
f 11//118 25//118 3//118
f 3//119 57//119 12//119
f 56//119 55//119 57//119
f 41//119 26//119 55//119
f 12//119 4//119 3//119
f 57//119 26//119 12//119
f 133//120 134//120 135//120
f 137//122 133//122 132//122
f 134//124 139//124 140//124
f 142//127 137//127 136//127
f 139//130 143//130 144//130
f 146//133 142//133 141//133
f 143//136 147//136 148//136
f 147//139 146//139 145//139
