# Blender v2.78 (sub 0) OBJ File: 'king.blend'
# www.blender.org
o King_Cylinder.002
v -0.585627 6.133320 -0.585632
v -0.717742 6.041329 -0.717750
v -1.015041 6.041329 -0.000007
v -0.828202 6.133320 -0.000006
v -1.340069 7.502166 -0.000006
v -0.947571 7.502166 -0.947577
v 0.000000 6.133320 -0.828207
v 0.000000 6.041329 -1.015047
v -0.727476 5.912069 -0.727484
v -1.028807 5.912069 -0.000007
v -0.717743 6.041329 0.717737
v -0.585627 6.133320 0.585621
v 0.000000 7.502166 -1.340074
v -0.947571 7.502166 0.947566
v -0.116280 7.786979 -0.116286
v -0.164445 7.786979 -0.000006
v 0.585627 6.133320 -0.585632
v 0.717742 6.041329 -0.717748
v 0.000000 5.912069 -1.028814
v -1.010437 5.675834 -1.010445
v -1.428975 5.675834 -0.000007
v -0.727477 5.912069 0.727470
v -0.000000 6.041329 1.015036
v 0.000000 6.133320 0.828197
v 0.947572 7.502166 -0.947577
v 0.000000 7.786979 -0.164450
v 0.000000 7.502166 1.340062
v -0.116280 7.786979 0.116275
v 0.828202 6.133320 -0.000006
v 1.015041 6.041329 -0.000006
v 0.727476 5.912069 -0.727483
v 0.000000 5.675834 -1.428981
v -0.548412 5.469250 -0.548419
v -0.775572 5.469250 -0.000007
v -1.010439 5.675834 1.010432
v -0.000000 5.912069 1.028801
v 0.717742 6.041329 0.717737
v 0.585627 6.133320 0.585621
v 1.340068 7.502166 -0.000006
v 0.116280 7.786979 -0.116286
v 0.947571 7.502166 0.947566
v 0.000000 7.786979 0.164439
v 1.028808 5.912069 -0.000006
v 1.010438 5.675834 -1.010444
v 0.000000 5.469250 -0.775578
v -0.794695 2.026233 -0.794704
v -1.123870 2.026233 -0.000007
v -0.548413 5.469250 0.548406
v -0.000000 5.675834 1.428969
v 0.727476 5.912069 0.727471
v 0.164445 7.786979 -0.000006
v 0.116280 7.786979 0.116275
v 1.428975 5.675834 -0.000006
v 0.548413 5.469250 -0.548419
v 0.000000 2.026233 -1.123876
v -1.386303 1.877853 -0.000007
v -0.980263 1.877853 -0.980272
v -0.794696 2.026233 0.794689
v -0.000000 5.469250 0.775567
v 1.010438 5.675834 1.010432
v 0.775572 5.469250 -0.000006
v 0.794696 2.026233 -0.794702
v 0.000000 1.877853 -1.386310
v -1.544005 1.630874 -0.000007
v -1.091775 1.630874 -1.091783
v -0.980265 1.877853 0.980258
v 0.000000 2.026233 1.123865
v 0.548413 5.469250 0.548406
v 1.123870 2.026233 -0.000006
v 0.980264 1.877853 -0.980271
v 0.000000 1.630874 -1.544011
v -2.023620 1.211419 -0.000007
v -1.430913 1.211419 -1.430923
v -1.091777 1.630874 1.091771
v -0.000000 1.877853 1.386297
v 0.794696 2.026233 0.794691
v 1.386303 1.877853 -0.000006
v 1.091777 1.630874 -1.091782
v 0.000000 1.211419 -2.023625
v -1.717870 0.719629 -0.000007
v -1.214716 0.719629 -1.214724
v -1.430916 1.211419 1.430909
v -0.000000 1.630874 1.544000
v 0.980264 1.877853 0.980258
v 1.544005 1.630874 -0.000006
v 1.430915 1.211419 -1.430920
v 0.000000 0.719629 -1.717875
v -1.989617 0.604558 -0.000007
v -1.406870 0.604558 -1.406880
v -1.214718 0.719629 1.214710
v -0.000001 1.211419 2.023614
v 1.091777 1.630874 1.091771
v 2.023620 1.211419 -0.000006
v 1.214717 0.719629 -1.214723
v 0.000000 0.604558 -1.989623
v -2.249944 0.037827 -0.000009
v -1.590948 0.037827 -1.590958
v -1.406873 0.604558 1.406866
v -0.000000 0.719629 1.717864
v 1.430916 1.211419 1.430909
v 1.717870 0.719629 -0.000006
v 1.406872 0.604558 -1.406877
v 0.000000 0.037827 -2.249949
v -0.000001 0.037827 2.249938
v -1.590951 0.037827 1.590944
v 1.590950 0.037827 -1.590956
v 2.249944 0.037827 -0.000006
v 1.590950 0.037827 1.590945
v -0.000000 0.604558 1.989611
v 1.214717 0.719629 1.214711
v 1.989617 0.604558 -0.000006
v 1.406872 0.604558 1.406866
v -0.333103 7.907664 -0.000006
v -0.205705 8.720519 -0.000006
v -0.145455 8.720519 -0.145461
v -0.235539 7.907664 -0.235545
v -0.235539 7.800390 -0.000006
v -0.166551 7.800390 -0.166557
v -0.235539 7.907664 0.235534
v -0.145455 8.720519 0.145449
v 0.000000 8.882845 -0.000006
v 0.000000 8.720519 -0.205711
v 0.000000 7.907664 -0.333109
v -0.166551 7.800390 0.166546
v 0.000000 7.800390 -0.235545
v 0.000000 7.907664 0.333098
v 0.000000 8.720519 0.205700
v 0.145455 8.720519 -0.145461
v 0.235539 7.907664 -0.235545
v 0.000000 7.800390 0.235534
v 0.166551 7.800390 -0.166557
v 0.235539 7.907664 0.235534
v 0.145455 8.720519 0.145449
v 0.205705 8.720519 -0.000006
v 0.333103 7.907664 -0.000006
v 0.166551 7.800390 0.166546
v 0.235539 7.800390 -0.000006
v -0.204813 8.005728 -0.000006
v -0.144825 8.005728 -0.144830
v -0.144825 8.005728 0.144818
v 0.000000 8.005728 -0.204818
v 0.000000 8.005728 0.204807
v 0.144825 8.005728 -0.144830
v 0.144825 8.005728 0.144818
v 0.204813 8.005728 -0.000006
v -0.205009 8.242983 -0.000006
v -0.205188 8.305940 -0.000006
v -0.205366 8.448898 -0.000006
v -0.205544 8.511856 -0.000006
v -0.144963 8.242983 0.144957
v -0.145090 8.305940 0.145085
v -0.145216 8.448898 0.145210
v -0.145342 8.511856 0.145336
v 0.000000 8.162983 0.205003
v 0.000000 8.305940 0.205182
v 0.000000 8.448898 0.205361
v 0.000000 8.591856 0.205539
v 0.144964 8.162983 0.144957
v 0.145090 8.305940 0.145085
v 0.145216 8.448898 0.145210
v 0.145342 8.591856 0.145336
v -0.145342 8.591856 -0.145348
v -0.145216 8.448898 -0.145222
v -0.145090 8.305940 -0.145096
v -0.144963 8.162983 -0.144969
v 0.000000 8.591856 -0.205551
v 0.000000 8.448898 -0.205372
v 0.000000 8.305940 -0.205193
v 0.000000 8.162983 -0.205016
v 0.145342 8.511856 -0.145348
v 0.145216 8.448898 -0.145222
v 0.145090 8.305940 -0.145096
v 0.144964 8.242983 -0.144969
v 0.205544 8.511856 -0.000006
v 0.205366 8.448898 -0.000006
v 0.205188 8.305940 -0.000006
v 0.205009 8.242983 -0.000006
v -0.371919 8.162774 0.069131
v -0.372097 8.305732 0.069131
v -0.372276 8.448690 0.069131
v -0.372454 8.591648 0.069131
v -0.311873 8.162774 0.214094
v -0.311999 8.305732 0.214221
v -0.312126 8.448690 0.214347
v -0.312251 8.591648 0.214473
v 0.312252 8.591648 -0.214484
v 0.312125 8.448690 -0.214358
v 0.311999 8.305732 -0.214231
v 0.311873 8.162774 -0.214105
v 0.372454 8.591648 -0.069142
v 0.372276 8.448690 -0.069142
v 0.372097 8.305732 -0.069142
v 0.371919 8.162774 -0.069142
v -0.206987 8.068630 -0.206993
v 0.000000 8.068630 -0.292730
v 0.206987 8.068630 -0.206993
v 0.292724 8.068630 -0.000006
v -0.292724 8.068630 -0.000006
v -0.206987 8.068630 0.206981
v 0.000000 8.068630 0.292718
v 0.206987 8.068630 0.206981
v -0.277805 8.694786 -0.000006
v -0.196438 8.694786 0.196431
v 0.000000 8.694786 0.277800
v 0.196438 8.694786 0.196431
v -0.196438 8.694786 -0.196443
v 0.000000 8.694786 -0.277811
v 0.196438 8.694786 -0.196443
v 0.277805 8.694786 -0.000006
vn -0.4345 0.8825 -0.1800
vn -0.8732 -0.3265 -0.3617
vn -0.1800 0.8825 -0.4345
vn -0.9194 0.0979 -0.3808
vn -0.4345 0.8825 0.1800
vn -0.3617 -0.3265 -0.8732
vn -0.8732 -0.3265 0.3617
vn -0.2343 0.9673 -0.0971
vn 0.1800 0.8825 -0.4345
vn -0.3808 0.0979 -0.9194
vn -0.4975 0.8427 -0.2061
vn -0.9194 0.0979 0.3808
vn -0.1800 0.8825 0.4345
vn 0.3617 -0.3265 -0.8732
vn -0.0971 0.9673 -0.2343
vn -0.3617 -0.3265 0.8732
vn -0.2343 0.9673 0.0971
vn 0.4345 0.8825 -0.1800
vn 0.3808 0.0979 -0.9194
vn -0.2061 0.8427 -0.4975
vn -0.2991 -0.9461 -0.1239
vn -0.4975 0.8427 0.2061
vn -0.3808 0.0979 0.9194
vn 0.1800 0.8825 0.4345
vn 0.8732 -0.3265 -0.3617
vn 0.0971 0.9673 -0.2343
vn 0.3617 -0.3265 0.8732
vn -0.0971 0.9673 0.2343
vn 0.4345 0.8825 0.1800
vn 0.9194 0.0979 -0.3808
vn 0.2061 0.8427 -0.4975
vn -0.1239 -0.9461 -0.2991
vn -0.9199 0.0931 -0.3810
vn -0.2991 -0.9461 0.1239
vn -0.2061 0.8427 0.4975
vn 0.3808 0.0979 0.9194
vn 0.8732 -0.3265 0.3617
vn 0.2343 0.9673 -0.0971
vn 0.0971 0.9673 0.2343
vn 0.9194 0.0979 0.3808
vn 0.4975 0.8427 -0.2061
vn 0.1239 -0.9461 -0.2991
vn -0.3810 0.0931 -0.9199
vn -0.4823 0.8529 -0.1998
vn -0.9199 0.0931 0.3810
vn -0.1239 -0.9461 0.2991
vn 0.2061 0.8427 0.4975
vn 0.2343 0.9673 0.0971
vn 0.4975 0.8427 0.2061
vn 0.2991 -0.9461 -0.1239
vn 0.3810 0.0931 -0.9199
vn -0.1998 0.8529 -0.4823
vn -0.7957 0.5081 -0.3296
vn -0.4823 0.8529 0.1998
vn -0.3810 0.0931 0.9199
vn 0.1239 -0.9461 0.2991
vn 0.2991 -0.9461 0.1239
vn 0.9199 0.0931 -0.3810
vn 0.1998 0.8529 -0.4823
vn -0.3296 0.5081 -0.7957
vn -0.6351 0.7262 -0.2631
vn -0.7957 0.5081 0.3296
vn -0.1998 0.8529 0.4823
vn 0.3810 0.0931 0.9199
vn 0.9199 0.0931 0.3810
vn 0.4823 0.8529 -0.1998
vn 0.3296 0.5081 -0.7957
vn -0.2631 0.7262 -0.6351
vn -0.8011 -0.4981 -0.3318
vn -0.6351 0.7262 0.2631
vn -0.3296 0.5081 0.7957
vn 0.1998 0.8529 0.4823
vn 0.4823 0.8529 0.1998
vn 0.7957 0.5081 -0.3296
vn 0.2631 0.7262 -0.6351
vn -0.3318 -0.4981 -0.8011
vn -0.3849 0.9091 -0.1594
vn -0.8011 -0.4981 0.3318
vn -0.2631 0.7262 0.6351
vn 0.3296 0.5081 0.7957
vn 0.7957 0.5081 0.3296
vn 0.6351 0.7262 -0.2631
vn 0.3318 -0.4981 -0.8011
vn -0.1594 0.9091 -0.3849
vn -0.8505 0.3907 -0.3523
vn -0.3849 0.9091 0.1594
vn -0.3318 -0.4981 0.8011
vn 0.2631 0.7262 0.6351
vn 0.6351 0.7262 0.2631
vn 0.8011 -0.4981 -0.3318
vn 0.1594 0.9091 -0.3849
vn -0.3523 0.3907 -0.8505
vn 0.0000 -1.0000 0.0000
vn -0.8505 0.3907 0.3523
vn -0.1594 0.9091 0.3849
vn 0.3318 -0.4981 0.8011
vn 0.8011 -0.4981 0.3318
vn 0.3849 0.9091 -0.1594
vn 0.3523 0.3907 -0.8505
vn 0.3523 0.3907 0.8505
vn -0.3523 0.3907 0.8505
vn 0.8505 0.3907 -0.3523
vn 0.8505 0.3907 0.3523
vn 0.1594 0.9091 0.3849
vn 0.3849 0.9091 0.1594
vn -0.3329 0.9328 -0.1379
vn -0.7073 -0.6433 -0.2930
vn -0.3329 0.9328 0.1379
vn -0.6000 0.7604 -0.2485
vn -0.1379 0.9328 -0.3329
vn -0.1848 -0.9798 -0.0765
vn -0.7073 -0.6433 0.2930
vn -0.2930 -0.6433 -0.7073
vn -0.1379 0.9328 0.3329
vn -0.6000 0.7604 0.2485
vn -0.2485 0.7604 -0.6000
vn 0.1379 0.9328 -0.3329
vn -0.1848 -0.9798 0.0765
vn -0.0766 -0.9798 -0.1848
vn -0.2930 -0.6433 0.7073
vn 0.2930 -0.6433 -0.7073
vn 0.1379 0.9328 0.3329
vn -0.2485 0.7604 0.6000
vn 0.2485 0.7604 -0.6000
vn 0.3329 0.9328 -0.1379
vn -0.0766 -0.9798 0.1848
vn 0.0766 -0.9798 -0.1848
vn 0.2930 -0.6433 0.7073
vn 0.7073 -0.6433 -0.2930
vn 0.3329 0.9328 0.1379
vn 0.2485 0.7604 0.6000
vn 0.6000 0.7604 -0.2485
vn 0.0766 -0.9798 0.1848
vn 0.1848 -0.9798 -0.0765
vn 0.7073 -0.6433 0.2930
vn 0.6000 0.7604 0.2485
vn 0.1848 -0.9798 0.0765
vn 0.5889 0.7705 0.2439
vn 0.5889 0.7705 -0.2439
vn 0.2439 0.7705 0.5889
vn 0.2439 0.7705 -0.5889
vn -0.2439 0.7705 0.5889
vn -0.2439 0.7705 -0.5889
vn -0.5889 0.7705 0.2439
vn -0.5889 0.7705 -0.2439
vn 0.7009 0.6516 0.2903
vn 0.9241 -0.0012 0.3821
vn 0.9239 -0.0012 0.3827
vn 0.9239 -0.0026 0.3827
vn 0.8378 0.4215 -0.3470
vn -0.3749 -0.9140 0.1553
vn 0.3827 -0.0005 0.9239
vn 0.3829 -0.0005 0.9238
vn 0.2903 0.6516 0.7009
vn 0.3827 -0.0012 0.9239
vn 0.2903 0.6515 -0.7009
vn 0.3832 -0.0011 -0.9237
vn 0.3827 -0.0012 -0.9239
vn 0.3827 -0.0026 -0.9239
vn -0.2903 0.6516 0.7009
vn -0.3832 -0.0012 0.9237
vn -0.3827 -0.0012 0.9239
vn -0.3827 -0.0026 0.9239
vn -0.2903 0.6515 -0.7009
vn -0.3827 -0.0011 -0.9239
vn -0.3827 -0.0012 -0.9239
vn -0.8378 0.4215 0.3470
vn -0.3829 -0.0005 -0.9238
vn 0.3749 -0.9140 -0.1553
vn -0.3827 -0.0005 -0.9239
vn -0.7009 0.6516 -0.2903
vn -0.9241 -0.0012 -0.3821
vn -0.9239 -0.0012 -0.3827
vn -0.9239 -0.0026 -0.3827
vn 0.9239 -0.0012 -0.3827
vn -0.9239 -0.0012 0.3827
vn 0.3827 -0.0011 0.9239
vn 0.3733 0.9148 -0.1546
vn -0.3733 0.9148 0.1546
vn -0.5657 -0.7906 -0.2343
vn -0.5657 -0.7906 0.2343
vn -0.2343 -0.7906 -0.5657
vn -0.2343 -0.7906 0.5657
vn 0.2343 -0.7906 -0.5657
vn 0.2343 -0.7906 0.5657
vn 0.5657 -0.7906 -0.2343
vn 0.5657 -0.7906 0.2343
vn 0.8019 -0.3168 0.5065
vn 0.8679 -0.3428 -0.3595
vn 0.3211 -0.5442 0.7751
vn 0.2089 -0.3168 -0.9252
vn -0.2089 -0.3168 0.9252
vn -0.3211 -0.5442 -0.7751
vn -0.8679 -0.3428 0.3595
vn -0.8019 -0.3168 -0.5065
vn -0.1848 -0.9798 -0.0766
vn -0.1848 -0.9798 0.0766
vn 0.1848 -0.9798 -0.0766
vn 0.1848 -0.9798 0.0766
vn 0.5889 0.7705 0.2440
vn 0.5889 0.7705 -0.2440
vn 0.7599 0.3823 0.5257
vn 0.9237 -0.0012 0.3832
vn 0.1656 0.3823 -0.9091
vn 0.3821 -0.0012 -0.9241
vn -0.1656 0.3823 0.9091
vn -0.3821 -0.0012 0.9241
vn -0.2903 0.6516 -0.7009
vn -0.7599 0.3823 -0.5257
vn -0.9237 -0.0012 -0.3832
vn 0.3825 -0.0005 0.9240
vn -0.3825 -0.0005 -0.9240
vn 0.7751 -0.5442 0.3211
vn 0.3211 -0.5442 -0.7751
vn -0.3211 -0.5442 0.7751
vn -0.7751 -0.5442 -0.3211
s off
f 1//1 3//1 4//1
f 4//2 6//2 1//2
f 7//3 2//3 1//3
f 10//4 2//4 9//4
f 4//5 11//5 12//5
f 1//6 13//6 7//6
f 4//7 14//7 5//7
f 6//8 16//8 15//8
f 18//9 7//9 17//9
f 9//10 8//10 19//10
f 20//11 10//11 9//11
f 22//12 3//12 10//12
f 12//13 23//13 24//13
f 7//14 25//14 17//14
f 13//15 15//15 26//15
f 24//16 14//16 12//16
f 5//17 28//17 16//17
f 30//18 17//18 29//18
f 31//19 8//19 18//19
f 32//20 9//20 19//20
f 34//21 20//21 33//21
f 21//22 22//22 10//22
f 36//23 11//23 22//23
f 24//24 37//24 38//24
f 17//25 39//25 29//25
f 40//26 13//26 26//26
f 24//27 41//27 27//27
f 28//28 27//28 42//28
f 38//29 30//29 29//29
f 43//30 18//30 30//30
f 32//31 31//31 44//31
f 45//32 20//32 32//32
f 46//33 34//33 33//33
f 48//34 21//34 34//34
f 35//35 36//35 22//35
f 50//36 23//36 36//36
f 38//37 39//37 41//37
f 39//38 40//38 51//38
f 27//39 52//39 42//39
f 43//40 37//40 50//40
f 44//41 43//41 53//41
f 54//42 32//42 44//42
f 46//43 45//43 55//43
f 47//44 57//44 56//44
f 47//45 48//45 34//45
f 59//46 35//46 48//46
f 49//47 50//47 36//47
f 52//48 39//48 51//48
f 60//49 43//49 50//49
f 54//50 53//50 61//50
f 55//51 54//51 62//51
f 46//52 63//52 57//52
f 56//53 65//53 64//53
f 58//54 56//54 66//54
f 67//55 48//55 58//55
f 59//56 60//56 49//56
f 68//57 53//57 60//57
f 62//58 61//58 69//58
f 55//59 70//59 63//59
f 57//60 71//60 65//60
f 72//61 65//61 73//61
f 66//62 64//62 74//62
f 67//63 66//63 75//63
f 76//64 59//64 67//64
f 69//65 68//65 76//65
f 62//66 77//66 70//66
f 63//67 78//67 71//67
f 73//68 71//68 79//68
f 72//69 81//69 80//69
f 74//70 72//70 82//70
f 75//71 74//71 83//71
f 76//72 75//72 84//72
f 69//73 84//73 77//73
f 78//74 77//74 85//74
f 71//75 86//75 79//75
f 73//76 87//76 81//76
f 88//77 81//77 89//77
f 90//78 72//78 80//78
f 83//79 82//79 91//79
f 92//80 75//80 83//80
f 85//81 84//81 92//81
f 86//82 85//82 93//82
f 79//83 94//83 87//83
f 89//84 87//84 95//84
f 88//85 97//85 96//85
f 90//86 88//86 98//86
f 99//87 82//87 90//87
f 92//88 91//88 100//88
f 85//89 100//89 93//89
f 86//90 101//90 94//90
f 95//91 94//91 102//91
f 89//92 103//92 97//92
f 97//93 107//93 108//93
f 105//94 88//94 96//94
f 99//95 98//95 109//95
f 110//96 91//96 99//96
f 101//97 100//97 110//97
f 102//98 101//98 111//98
f 95//99 106//99 103//99
f 108//100 109//100 104//100
f 104//101 98//101 105//101
f 102//102 107//102 106//102
f 107//103 112//103 108//103
f 110//104 109//104 112//104
f 101//105 112//105 111//105
f 114//106 206//106 202//106
f 117//107 116//107 118//107
f 203//108 114//108 202//108
f 114//109 121//109 115//109
f 206//110 122//110 207//110
f 117//111 15//111 16//111
f 119//112 117//112 124//112
f 116//113 125//113 118//113
f 127//114 203//114 204//114
f 120//115 121//115 114//115
f 115//116 121//116 122//116
f 122//117 208//117 207//117
f 28//118 117//118 16//118
f 15//119 125//119 26//119
f 130//120 119//120 124//120
f 125//121 129//121 131//121
f 205//122 127//122 204//122
f 127//123 121//123 120//123
f 122//124 121//124 128//124
f 208//125 134//125 209//125
f 130//126 28//126 42//126
f 125//127 40//127 26//127
f 132//128 130//128 136//128
f 129//129 137//129 131//129
f 134//130 205//130 209//130
f 133//131 121//131 127//131
f 128//132 121//132 134//132
f 52//133 130//133 42//133
f 40//134 137//134 51//134
f 137//135 132//135 136//135
f 134//136 121//136 133//136
f 137//137 52//137 51//137
f 135//138 144//138 132//138
f 143//139 135//139 129//139
f 132//140 142//140 126//140
f 141//141 129//141 123//141
f 142//142 119//142 126//142
f 116//143 141//143 123//143
f 140//144 113//144 119//144
f 113//145 139//145 116//145
f 197//146 158//146 201//146
f 177//147 159//147 158//147
f 175//148 159//148 176//148
f 174//149 160//149 175//149
f 173//150 197//150 196//150
f 173//151 193//151 177//151
f 151//152 184//152 183//152
f 150//153 183//153 182//153
f 158//154 200//154 201//154
f 159//155 154//155 158//155
f 159//155 156//155 155//155
f 161//155 156//155 160//155
f 169//156 196//156 195//156
f 168//157 173//157 169//157
f 167//158 172//158 168//158
f 167//159 170//159 171//159
f 154//160 199//160 200//160
f 155//161 150//161 154//161
f 156//162 151//162 155//162
f 156//163 153//163 152//163
f 194//164 169//164 195//164
f 165//165 168//165 169//165
f 164//166 167//166 168//166
f 162//166 167//166 163//166
f 150//167 198//167 199//167
f 173//168 188//168 189//168
f 146//169 182//169 178//169
f 171//170 188//170 172//170
f 198//171 165//171 194//171
f 146//172 164//172 165//172
f 147//173 163//173 164//173
f 149//174 163//174 148//174
f 189//175 192//175 193//175
f 188//175 191//175 192//175
f 186//175 191//175 187//175
f 182//176 179//176 178//176
f 184//176 179//176 183//176
f 185//176 180//176 184//176
f 174//153 191//153 190//153
f 153//177 184//177 152//177
f 153//178 181//178 185//178
f 175//152 192//152 191//152
f 146//165 179//165 147//165
f 177//177 192//177 176//177
f 170//179 190//179 186//179
f 148//170 179//170 180//170
f 170//165 187//165 171//165
f 149//168 180//168 181//168
f 198//180 139//180 138//180
f 199//181 138//181 140//181
f 194//182 141//182 139//182
f 142//183 199//183 140//183
f 141//184 196//184 143//184
f 201//185 142//185 144//185
f 143//186 197//186 145//186
f 197//187 144//187 145//187
f 209//188 161//188 174//188
f 208//189 174//189 170//189
f 205//190 157//190 161//190
f 166//191 208//191 170//191
f 157//192 203//192 153//192
f 206//193 166//193 162//193
f 203//194 149//194 153//194
f 202//195 162//195 149//195
f 1//1 2//1 3//1
f 4//2 5//2 6//2
f 7//3 8//3 2//3
f 10//4 3//4 2//4
f 4//5 3//5 11//5
f 1//6 6//6 13//6
f 4//7 12//7 14//7
f 6//8 5//8 16//8
f 18//9 8//9 7//9
f 9//10 2//10 8//10
f 20//11 21//11 10//11
f 22//12 11//12 3//12
f 12//13 11//13 23//13
f 7//14 13//14 25//14
f 13//15 6//15 15//15
f 24//16 27//16 14//16
f 5//17 14//17 28//17
f 30//18 18//18 17//18
f 31//19 19//19 8//19
f 32//20 20//20 9//20
f 34//21 21//21 20//21
f 21//22 35//22 22//22
f 36//23 23//23 11//23
f 24//24 23//24 37//24
f 17//25 25//25 39//25
f 40//26 25//26 13//26
f 24//27 38//27 41//27
f 28//28 14//28 27//28
f 38//29 37//29 30//29
f 43//30 31//30 18//30
f 32//31 19//31 31//31
f 45//32 33//32 20//32
f 46//33 47//33 34//33
f 48//34 35//34 21//34
f 35//35 49//35 36//35
f 50//36 37//36 23//36
f 38//37 29//37 39//37
f 39//38 25//38 40//38
f 27//39 41//39 52//39
f 43//40 30//40 37//40
f 44//41 31//41 43//41
f 54//42 45//42 32//42
f 46//43 33//43 45//43
f 47//44 46//44 57//44
f 47//45 58//45 48//45
f 59//46 49//46 35//46
f 49//47 60//47 50//47
f 52//48 41//48 39//48
f 60//49 53//49 43//49
f 54//50 44//50 53//50
f 55//51 45//51 54//51
f 46//52 55//52 63//52
f 56//53 57//53 65//53
f 58//54 47//54 56//54
f 67//55 59//55 48//55
f 59//56 68//56 60//56
f 68//57 61//57 53//57
f 62//58 54//58 61//58
f 55//59 62//59 70//59
f 57//60 63//60 71//60
f 72//61 64//61 65//61
f 66//62 56//62 64//62
f 67//63 58//63 66//63
f 76//64 68//64 59//64
f 69//65 61//65 68//65
f 62//66 69//66 77//66
f 63//67 70//67 78//67
f 73//68 65//68 71//68
f 72//69 73//69 81//69
f 74//70 64//70 72//70
f 75//71 66//71 74//71
f 76//72 67//72 75//72
f 69//73 76//73 84//73
f 78//74 70//74 77//74
f 71//75 78//75 86//75
f 73//76 79//76 87//76
f 88//77 80//77 81//77
f 90//78 82//78 72//78
f 83//79 74//79 82//79
f 92//80 84//80 75//80
f 85//81 77//81 84//81
f 86//82 78//82 85//82
f 79//83 86//83 94//83
f 89//84 81//84 87//84
f 88//85 89//85 97//85
f 90//86 80//86 88//86
f 99//87 91//87 82//87
f 92//88 83//88 91//88
f 85//89 92//89 100//89
f 86//90 93//90 101//90
f 95//91 87//91 94//91
f 89//92 95//92 103//92
f 108//93 104//93 105//93
f 105//93 96//93 97//93
f 97//93 103//93 106//93
f 106//93 107//93 97//93
f 108//93 105//93 97//93
f 105//94 98//94 88//94
f 99//95 90//95 98//95
f 110//96 100//96 91//96
f 101//97 93//97 100//97
f 102//98 94//98 101//98
f 95//99 102//99 106//99
f 108//100 112//100 109//100
f 104//101 109//101 98//101
f 102//102 111//102 107//102
f 107//103 111//103 112//103
f 110//104 99//104 109//104
f 101//105 110//105 112//105
f 114//106 115//106 206//106
f 117//107 113//107 116//107
f 203//108 120//108 114//108
f 206//110 115//110 122//110
f 117//196 118//196 15//196
f 119//112 113//112 117//112
f 116//113 123//113 125//113
f 127//114 120//114 203//114
f 122//117 128//117 208//117
f 28//197 124//197 117//197
f 15//119 118//119 125//119
f 130//120 126//120 119//120
f 125//121 123//121 129//121
f 205//122 133//122 127//122
f 208//125 128//125 134//125
f 130//126 124//126 28//126
f 125//127 131//127 40//127
f 132//128 126//128 130//128
f 129//129 135//129 137//129
f 134//130 133//130 205//130
f 52//133 136//133 130//133
f 40//198 131//198 137//198
f 137//135 135//135 132//135
f 137//199 136//199 52//199
f 135//200 145//200 144//200
f 143//201 145//201 135//201
f 132//140 144//140 142//140
f 141//141 143//141 129//141
f 142//142 140//142 119//142
f 116//143 139//143 141//143
f 140//144 138//144 113//144
f 113//145 138//145 139//145
f 197//202 177//202 158//202
f 177//149 176//149 159//149
f 175//148 160//148 159//148
f 174//203 161//203 160//203
f 173//150 177//150 197//150
f 173//151 189//151 193//151
f 151//152 152//152 184//152
f 150//177 151//177 183//177
f 158//154 154//154 200//154
f 159//155 155//155 154//155
f 159//155 160//155 156//155
f 161//155 157//155 156//155
f 169//204 173//204 196//204
f 168//159 172//159 173//159
f 167//158 171//158 172//158
f 167//205 166//205 170//205
f 154//206 150//206 199//206
f 155//163 151//163 150//163
f 156//162 152//162 151//162
f 156//207 157//207 153//207
f 194//208 165//208 169//208
f 165//166 164//166 168//166
f 164//166 163//166 167//166
f 162//166 166//166 167//166
f 150//167 146//167 198//167
f 173//165 172//165 188//165
f 146//169 150//169 182//169
f 171//170 187//170 188//170
f 198//209 146//209 165//209
f 146//174 147//174 164//174
f 147//173 148//173 163//173
f 149//210 162//210 163//210
f 189//175 188//175 192//175
f 188//175 187//175 191//175
f 186//175 190//175 191//175
f 182//176 183//176 179//176
f 184//176 180//176 179//176
f 185//176 181//176 180//176
f 174//177 175//177 191//177
f 153//211 185//211 184//211
f 153//178 149//178 181//178
f 175//152 176//152 192//152
f 146//212 178//212 179//212
f 177//211 193//211 192//211
f 170//179 174//179 190//179
f 148//170 147//170 179//170
f 170//212 186//212 187//212
f 149//165 148//165 180//165
f 198//180 194//180 139//180
f 199//181 198//181 138//181
f 194//182 195//182 141//182
f 142//183 200//183 199//183
f 141//184 195//184 196//184
f 201//185 200//185 142//185
f 143//186 196//186 197//186
f 197//187 201//187 144//187
f 209//213 205//213 161//213
f 208//189 209//189 174//189
f 205//190 204//190 157//190
f 166//214 207//214 208//214
f 157//215 204//215 203//215
f 206//193 207//193 166//193
f 203//194 202//194 149//194
f 202//216 206//216 162//216
