# Blender v2.78 (sub 0) OBJ File: 'rook.blend'
# www.blender.org
o Rook_Cylinder.005
v -0.000002 3.973877 -0.749262
v 0.529808 3.973877 -0.529808
v 0.749264 3.973877 0.000004
v 0.529808 3.973877 0.529814
v -0.000002 3.973877 0.749269
v -0.529814 3.973877 0.529814
v -0.749268 3.973877 0.000004
v -0.529812 3.973877 -0.529808
v -0.000002 1.701922 -1.029360
v 0.727867 1.701922 -0.727865
v 1.029360 1.701922 0.000004
v 0.727867 1.701922 0.727873
v -0.000002 1.701922 1.029366
v -0.727871 1.701922 0.727873
v -1.029364 1.701922 0.000002
v -0.727871 1.701922 -0.727867
v -0.000002 0.428616 -1.340336
v -0.000002 0.050785 -1.499996
v 1.060658 0.050785 -1.060656
v 0.947762 0.428616 -0.947760
v 1.499998 0.050785 0.000004
v 1.340338 0.428616 0.000004
v 1.060658 0.050785 1.060663
v 0.947762 0.428616 0.947767
v -0.000002 0.050785 1.500004
v -0.000002 0.428616 1.340343
v -1.060663 0.050785 1.060663
v -0.947765 0.428616 0.947765
v -1.500002 0.050785 0.000002
v -1.340342 0.428616 0.000002
v -1.060661 0.050785 -1.060658
v -0.947763 0.428616 -0.947760
v -0.000002 0.505331 -1.145271
v 0.809830 0.505331 -0.809828
v 1.145273 0.505331 0.000004
v 0.809830 0.505331 0.809835
v -0.000002 0.505331 1.145279
v -0.809834 0.505331 0.809835
v -1.145277 0.505331 0.000002
v -0.809832 0.505331 -0.809830
v -0.000002 0.903723 -1.419365
v 1.003643 0.903723 -1.003641
v 1.419367 0.903723 0.000004
v 1.003643 0.903723 1.003649
v -0.000002 0.903723 1.419373
v -1.003647 0.903723 1.003649
v -1.419371 0.903723 0.000002
v -1.003645 0.903723 -1.003643
v -0.000002 1.866579 -0.924221
v 0.653524 1.866579 -0.653522
v 0.924223 1.866579 0.000004
v 0.653524 1.866579 0.653530
v -0.000002 1.866579 0.924229
v -0.653528 1.866579 0.653528
v -0.924227 1.866579 0.000002
v -0.653526 1.866579 -0.653522
v -0.738670 4.081737 0.738672
v -1.044638 4.081737 0.000002
v -0.000002 4.081737 1.044640
v -0.738668 4.081737 -0.738667
v -0.000002 4.081737 -1.044632
v 0.738667 4.081737 0.738672
v 1.044634 4.081737 0.000004
v 0.738667 4.081737 -0.738665
v -0.526995 4.438503 0.526997
v -0.745281 4.438503 0.000004
v -0.000002 4.438503 0.745283
v -0.526993 4.438503 -0.526989
v -0.000002 4.438503 -0.745277
v 0.526991 4.438503 0.526997
v 0.745277 4.438503 0.000004
v 0.526991 4.438503 -0.526989
v -0.738670 4.438503 0.738672
v -1.044638 4.438503 0.000002
v -0.000002 4.438503 1.044640
v -0.738668 4.438503 -0.738667
v -0.000002 4.438503 -1.044632
v 0.738667 4.438503 0.738672
v 1.044634 4.438503 0.000004
v 0.738667 4.438503 -0.738665
v -0.738670 4.668145 0.738672
v -1.044638 4.668145 0.000002
v -0.738668 4.668145 -0.738667
v -0.000002 4.668145 -1.044632
v 0.738667 4.668145 0.738672
v -0.000002 4.668145 1.044640
v 0.738667 4.668145 -0.738665
v 1.044634 4.668145 0.000004
v -0.526995 4.668145 0.526997
v -0.745281 4.668145 0.000004
v -0.526993 4.668145 -0.526989
v -0.000002 4.668145 -0.745277
v 0.526991 4.668145 0.526997
v -0.000002 4.668145 0.745283
v 0.526991 4.668145 -0.526989
v 0.745277 4.668145 0.000004
v -0.526995 4.264542 0.526997
v -0.745281 4.264542 0.000004
v -0.000002 4.264542 0.745283
v -0.526993 4.264542 -0.526989
v -0.000002 4.264542 -0.745277
v 0.526991 4.264542 0.526997
v 0.745277 4.264542 0.000004
v 0.526991 4.264542 -0.526989
vn 0.9212 0.0765 -0.3816
vn -0.9212 0.0765 -0.3816
vn -0.7957 0.5081 0.3296
vn 0.3816 0.0765 -0.9212
vn -0.3816 0.0765 -0.9212
vn 0.8606 0.3637 -0.3565
vn -0.1499 0.9201 0.3619
vn -0.3619 0.9201 0.1499
vn 0.3816 0.0765 0.9212
vn 0.9212 0.0765 0.3816
vn -0.9212 0.0765 0.3816
vn -0.3816 0.0765 0.9212
vn 0.8606 0.3637 0.3565
vn -0.7797 -0.5364 -0.3230
vn -0.3230 -0.5364 -0.7797
vn 0.3565 0.3637 0.8606
vn 0.3230 -0.5364 -0.7797
vn 0.7797 -0.5364 -0.3230
vn -0.3565 0.3637 0.8606
vn -0.3230 -0.5364 0.7797
vn 0.7797 -0.5364 0.3230
vn -0.8606 0.3637 0.3565
vn -0.7797 -0.5364 0.3230
vn 0.3230 -0.5364 0.7797
vn 0.8421 0.4114 0.3488
vn -0.3488 0.4114 -0.8421
vn -0.8421 0.4114 -0.3488
vn 0.8421 0.4114 -0.3488
vn 0.3488 0.4114 -0.8421
vn -0.8606 0.3637 -0.3565
vn -0.3619 0.9201 -0.1499
vn -0.1499 0.9201 -0.3619
vn 0.0000 -1.0000 0.0000
vn -0.3296 0.5081 -0.7957
vn -0.3488 0.4114 0.8421
vn 0.3488 0.4114 0.8421
vn -0.7957 0.5081 -0.3296
vn -0.8421 0.4114 0.3488
vn -0.3565 0.3637 -0.8606
vn 0.1499 0.9201 -0.3619
vn 0.3619 0.9201 -0.1499
vn 0.1499 0.9201 0.3619
vn 0.3619 0.9201 0.1499
vn 0.3565 0.3637 -0.8606
vn 0.7957 0.5081 0.3296
vn 0.3296 0.5081 0.7957
vn 0.3296 0.5081 -0.7957
vn 0.7957 0.5081 -0.3296
vn -0.3296 0.5081 0.7957
vn -0.1407 -0.9300 0.3396
vn 0.3827 0.0000 -0.9239
vn 0.3396 -0.9300 -0.1407
vn -0.3396 -0.9300 -0.1407
vn 0.1407 -0.9300 0.3396
vn -0.1407 -0.9300 -0.3396
vn -0.3396 -0.9300 0.1407
vn 0.1407 -0.9300 -0.3396
vn 0.3396 -0.9300 0.1407
vn -0.9239 0.0000 0.3827
vn 0.9239 0.0000 0.3827
vn -0.3827 0.0000 -0.9239
vn -0.3827 0.0000 0.9239
vn 0.9239 0.0000 -0.3827
vn 0.3827 0.0000 0.9239
vn -0.9239 0.0000 -0.3827
vn -0.7071 0.0000 0.7071
vn 0.0000 1.0000 0.0000
vn -1.0000 0.0000 0.0000
vn 1.0000 0.0000 0.0000
vn 0.7071 0.0000 -0.7071
vn 0.0000 0.0000 1.0000
vn -0.7071 0.0000 -0.7071
vn 0.7071 0.0000 0.7071
vn 0.0000 0.0000 -1.0000
s off
f 2//1 51//1 50//1
f 7//2 56//2 55//2
f 54//3 15//3 14//3
f 1//4 50//4 49//4
f 8//5 49//5 56//5
f 19//6 22//6 21//6
f 26//7 38//7 28//7
f 28//8 39//8 30//8
f 4//9 53//9 52//9
f 3//10 52//10 51//10
f 54//11 7//11 55//11
f 5//12 54//12 53//12
f 22//13 23//13 21//13
f 39//14 48//14 40//14
f 40//15 41//15 33//15
f 23//16 26//16 25//16
f 33//17 42//17 34//17
f 42//18 35//18 34//18
f 26//19 27//19 25//19
f 45//20 38//20 37//20
f 35//21 44//21 36//21
f 28//22 29//22 27//22
f 46//23 39//23 38//23
f 44//24 37//24 36//24
f 11//25 44//25 43//25
f 48//26 9//26 41//26
f 15//27 48//27 47//27
f 42//28 11//28 43//28
f 9//29 42//29 41//29
f 29//30 32//30 31//30
f 39//31 32//31 30//31
f 40//32 17//32 32//32
f 31//33 19//33 23//33
f 56//34 9//34 16//34
f 13//35 46//35 45//35
f 44//36 13//36 45//36
f 15//37 56//37 16//37
f 14//38 47//38 46//38
f 32//39 18//39 31//39
f 33//40 20//40 17//40
f 34//41 22//41 20//41
f 36//42 26//42 24//42
f 22//43 36//43 24//43
f 17//44 19//44 18//44
f 51//45 12//45 11//45
f 52//46 13//46 12//46
f 49//47 10//47 9//47
f 50//48 11//48 10//48
f 53//49 14//49 13//49
f 5//50 57//50 6//50
f 61//51 80//51 64//51
f 3//52 64//52 63//52
f 8//53 58//53 60//53
f 5//54 62//54 59//54
f 1//55 60//55 61//55
f 7//56 57//56 58//56
f 2//57 61//57 64//57
f 3//58 62//58 4//58
f 72//59 103//59 71//59
f 63//60 78//60 62//60
f 60//61 77//61 61//61
f 59//62 73//62 57//62
f 64//63 79//63 63//63
f 62//64 75//64 59//64
f 58//65 76//65 60//65
f 57//59 74//59 58//59
f 68//66 83//66 76//66
f 65//67 75//67 67//67
f 68//67 74//67 66//67
f 69//64 91//64 68//64
f 78//64 86//64 75//64
f 70//67 79//67 71//67
f 75//68 94//68 67//68
f 69//67 80//67 77//67
f 90//67 81//67 89//67
f 92//67 83//67 91//67
f 93//67 86//67 85//67
f 95//67 88//67 87//67
f 67//61 93//61 70//61
f 77//69 92//69 69//69
f 80//63 88//63 79//63
f 70//70 85//70 78//70
f 71//59 95//59 72//59
f 73//59 82//59 74//59
f 79//71 96//71 71//71
f 66//63 89//63 65//63
f 72//72 87//72 80//72
f 65//73 81//73 73//73
f 74//74 90//74 66//74
f 76//61 84//61 77//61
f 103//67 100//67 98//67
f 70//61 99//61 67//61
f 66//60 100//60 68//60
f 65//63 98//63 66//63
f 69//62 104//62 72//62
f 71//65 102//65 70//65
f 68//64 101//64 69//64
f 67//51 97//51 65//51
f 2//1 3//1 51//1
f 7//2 8//2 56//2
f 54//3 55//3 15//3
f 1//4 2//4 50//4
f 8//5 1//5 49//5
f 19//6 20//6 22//6
f 26//7 37//7 38//7
f 28//8 38//8 39//8
f 4//9 5//9 53//9
f 3//10 4//10 52//10
f 54//11 6//11 7//11
f 5//12 6//12 54//12
f 22//13 24//13 23//13
f 39//14 47//14 48//14
f 40//15 48//15 41//15
f 23//16 24//16 26//16
f 33//17 41//17 42//17
f 42//18 43//18 35//18
f 26//19 28//19 27//19
f 45//20 46//20 38//20
f 35//21 43//21 44//21
f 28//22 30//22 29//22
f 46//23 47//23 39//23
f 44//24 45//24 37//24
f 11//25 12//25 44//25
f 48//26 16//26 9//26
f 15//27 16//27 48//27
f 42//28 10//28 11//28
f 9//29 10//29 42//29
f 29//30 30//30 32//30
f 39//31 40//31 32//31
f 40//32 33//32 17//32
f 23//33 25//33 27//33
f 27//33 29//33 23//33
f 31//33 18//33 19//33
f 19//33 21//33 23//33
f 23//33 29//33 31//33
f 56//34 49//34 9//34
f 13//35 14//35 46//35
f 44//36 12//36 13//36
f 15//37 55//37 56//37
f 14//38 15//38 47//38
f 32//39 17//39 18//39
f 33//40 34//40 20//40
f 34//41 35//41 22//41
f 36//42 37//42 26//42
f 22//43 35//43 36//43
f 17//44 20//44 19//44
f 51//45 52//45 12//45
f 52//46 53//46 13//46
f 49//47 50//47 10//47
f 50//48 51//48 11//48
f 53//49 54//49 14//49
f 5//50 59//50 57//50
f 61//51 77//51 80//51
f 3//52 2//52 64//52
f 8//53 7//53 58//53
f 5//54 4//54 62//54
f 1//55 8//55 60//55
f 7//56 6//56 57//56
f 2//57 1//57 61//57
f 3//58 63//58 62//58
f 72//59 104//59 103//59
f 63//60 79//60 78//60
f 60//61 76//61 77//61
f 59//62 75//62 73//62
f 64//63 80//63 79//63
f 62//64 78//64 75//64
f 58//65 74//65 76//65
f 57//59 73//59 74//59
f 68//66 91//66 83//66
f 65//67 73//67 75//67
f 68//67 76//67 74//67
f 69//64 92//64 91//64
f 78//64 85//64 86//64
f 70//67 78//67 79//67
f 75//68 86//68 94//68
f 69//67 72//67 80//67
f 90//67 82//67 81//67
f 92//67 84//67 83//67
f 93//67 94//67 86//67
f 95//67 96//67 88//67
f 67//61 94//61 93//61
f 77//69 84//69 92//69
f 80//63 87//63 88//63
f 70//70 93//70 85//70
f 71//59 96//59 95//59
f 73//59 81//59 82//59
f 79//71 88//71 96//71
f 66//63 90//63 89//63
f 72//72 95//72 87//72
f 65//73 89//73 81//73
f 74//74 82//74 90//74
f 76//61 83//61 84//61
f 98//67 97//67 99//67
f 99//67 102//67 103//67
f 103//67 104//67 101//67
f 101//67 100//67 103//67
f 98//67 99//67 103//67
f 70//61 102//61 99//61
f 66//60 98//60 100//60
f 65//63 97//63 98//63
f 69//62 101//62 104//62
f 71//65 103//65 102//65
f 68//64 100//64 101//64
f 67//51 99//51 97//51
